# The Trailblazer, pixels, +Z forward, left-handed
# generated by devtools/art/build.py; the source bundle is under devtools/art/src
v -11.0000 12.0000 40.0000
v 11.0000 12.0000 40.0000
v 11.0000 19.0000 40.0000
v -11.0000 19.0000 40.0000
v -11.0000 12.0000 42.0000
v -11.0000 19.0000 42.0000
v 11.0000 19.0000 42.0000
v 11.0000 12.0000 42.0000
v -13.0000 12.0000 5.0000
v -3.0000 12.0000 5.0000
v -3.0000 16.0000 5.0000
v -13.0000 16.0000 5.0000
v -13.0000 12.0000 12.0000
v -13.0000 16.0000 12.0000
v -3.0000 16.0000 12.0000
v -3.0000 12.0000 12.0000
v -13.0000 16.0000 4.0000
v -3.0000 16.0000 4.0000
v -3.0000 27.0000 4.0000
v -13.0000 27.0000 4.0000
v -13.0000 16.0000 8.0000
v -13.0000 27.0000 8.0000
v -3.0000 27.0000 8.0000
v -3.0000 16.0000 8.0000
v -13.0000 12.0000 -9.0000
v -3.0000 12.0000 -9.0000
v -3.0000 16.0000 -9.0000
v -13.0000 16.0000 -9.0000
v -13.0000 12.0000 -1.0000
v -13.0000 16.0000 -1.0000
v -3.0000 16.0000 -1.0000
v -3.0000 12.0000 -1.0000
v -13.0000 16.0000 -11.0000
v -3.0000 16.0000 -11.0000
v -3.0000 25.0000 -11.0000
v -13.0000 25.0000 -11.0000
v -13.0000 16.0000 -5.0000
v -13.0000 25.0000 -5.0000
v -3.0000 25.0000 -5.0000
v -3.0000 16.0000 -5.0000
v 3.0000 12.0000 5.0000
v 13.0000 12.0000 5.0000
v 13.0000 16.0000 5.0000
v 3.0000 16.0000 5.0000
v 3.0000 12.0000 12.0000
v 3.0000 16.0000 12.0000
v 13.0000 16.0000 12.0000
v 13.0000 12.0000 12.0000
v 3.0000 16.0000 4.0000
v 13.0000 16.0000 4.0000
v 13.0000 27.0000 4.0000
v 3.0000 27.0000 4.0000
v 3.0000 16.0000 8.0000
v 3.0000 27.0000 8.0000
v 13.0000 27.0000 8.0000
v 13.0000 16.0000 8.0000
v 3.0000 12.0000 -9.0000
v 13.0000 12.0000 -9.0000
v 13.0000 16.0000 -9.0000
v 3.0000 16.0000 -9.0000
v 3.0000 12.0000 -1.0000
v 3.0000 16.0000 -1.0000
v 13.0000 16.0000 -1.0000
v 13.0000 12.0000 -1.0000
v 3.0000 16.0000 -11.0000
v 13.0000 16.0000 -11.0000
v 13.0000 25.0000 -11.0000
v 3.0000 25.0000 -11.0000
v 3.0000 16.0000 -5.0000
v 3.0000 25.0000 -5.0000
v 13.0000 25.0000 -5.0000
v 13.0000 16.0000 -5.0000
v -5.8000 20.2000 11.2000
v -4.2000 20.2000 11.2000
v -4.2000 21.8000 11.2000
v -5.8000 21.8000 11.2000
v -5.8000 20.2000 12.0000
v -5.8000 21.8000 12.0000
v -4.2000 21.8000 12.0000
v -4.2000 20.2000 12.0000
v -6.3359 22.2000 11.2000
v -4.7359 22.2000 11.2000
v -4.7359 23.8000 11.2000
v -6.3359 23.8000 11.2000
v -6.3359 22.2000 12.0000
v -6.3359 23.8000 12.0000
v -4.7359 23.8000 12.0000
v -4.7359 22.2000 12.0000
v -7.8000 23.6641 11.2000
v -6.2000 23.6641 11.2000
v -6.2000 25.2641 11.2000
v -7.8000 25.2641 11.2000
v -7.8000 23.6641 12.0000
v -7.8000 25.2641 12.0000
v -6.2000 25.2641 12.0000
v -6.2000 23.6641 12.0000
v -9.8000 24.2000 11.2000
v -8.2000 24.2000 11.2000
v -8.2000 25.8000 11.2000
v -9.8000 25.8000 11.2000
v -9.8000 24.2000 12.0000
v -9.8000 25.8000 12.0000
v -8.2000 25.8000 12.0000
v -8.2000 24.2000 12.0000
v -11.8000 23.6641 11.2000
v -10.2000 23.6641 11.2000
v -10.2000 25.2641 11.2000
v -11.8000 25.2641 11.2000
v -11.8000 23.6641 12.0000
v -11.8000 25.2641 12.0000
v -10.2000 25.2641 12.0000
v -10.2000 23.6641 12.0000
v -13.2641 22.2000 11.2000
v -11.6641 22.2000 11.2000
v -11.6641 23.8000 11.2000
v -13.2641 23.8000 11.2000
v -13.2641 22.2000 12.0000
v -13.2641 23.8000 12.0000
v -11.6641 23.8000 12.0000
v -11.6641 22.2000 12.0000
v -13.8000 20.2000 11.2000
v -12.2000 20.2000 11.2000
v -12.2000 21.8000 11.2000
v -13.8000 21.8000 11.2000
v -13.8000 20.2000 12.0000
v -13.8000 21.8000 12.0000
v -12.2000 21.8000 12.0000
v -12.2000 20.2000 12.0000
v -13.2641 18.2000 11.2000
v -11.6641 18.2000 11.2000
v -11.6641 19.8000 11.2000
v -13.2641 19.8000 11.2000
v -13.2641 18.2000 12.0000
v -13.2641 19.8000 12.0000
v -11.6641 19.8000 12.0000
v -11.6641 18.2000 12.0000
v -11.8000 16.7359 11.2000
v -10.2000 16.7359 11.2000
v -10.2000 18.3359 11.2000
v -11.8000 18.3359 11.2000
v -11.8000 16.7359 12.0000
v -11.8000 18.3359 12.0000
v -10.2000 18.3359 12.0000
v -10.2000 16.7359 12.0000
v -9.8000 16.2000 11.2000
v -8.2000 16.2000 11.2000
v -8.2000 17.8000 11.2000
v -9.8000 17.8000 11.2000
v -9.8000 16.2000 12.0000
v -9.8000 17.8000 12.0000
v -8.2000 17.8000 12.0000
v -8.2000 16.2000 12.0000
v -7.8000 16.7359 11.2000
v -6.2000 16.7359 11.2000
v -6.2000 18.3359 11.2000
v -7.8000 18.3359 11.2000
v -7.8000 16.7359 12.0000
v -7.8000 18.3359 12.0000
v -6.2000 18.3359 12.0000
v -6.2000 16.7359 12.0000
v -6.3359 18.2000 11.2000
v -4.7359 18.2000 11.2000
v -4.7359 19.8000 11.2000
v -6.3359 19.8000 11.2000
v -6.3359 18.2000 12.0000
v -6.3359 19.8000 12.0000
v -4.7359 19.8000 12.0000
v -4.7359 18.2000 12.0000
v -5.2000 28.0000 15.0000
v -5.4131 29.0715 15.0000
v -5.4131 29.0715 14.1000
v -5.2000 28.0000 14.1000
v -6.0201 29.9799 15.0000
v -6.0201 29.9799 14.1000
v -6.9285 30.5869 15.0000
v -6.9285 30.5869 14.1000
v -8.0000 30.8000 15.0000
v -8.0000 30.8000 14.1000
v -9.0715 30.5869 15.0000
v -9.0715 30.5869 14.1000
v -9.9799 29.9799 15.0000
v -9.9799 29.9799 14.1000
v -10.5869 29.0715 15.0000
v -10.5869 29.0715 14.1000
v -10.8000 28.0000 15.0000
v -10.8000 28.0000 14.1000
v -10.5869 26.9285 15.0000
v -10.5869 26.9285 14.1000
v -9.9799 26.0201 15.0000
v -9.9799 26.0201 14.1000
v -9.0715 25.4131 15.0000
v -9.0715 25.4131 14.1000
v -8.0000 25.2000 15.0000
v -8.0000 25.2000 14.1000
v -6.9285 25.4131 15.0000
v -6.9285 25.4131 14.1000
v -6.0201 26.0201 15.0000
v -6.0201 26.0201 14.1000
v -5.4131 26.9285 15.0000
v -5.4131 26.9285 14.1000
v 0.8000 28.0000 15.0000
v 0.5869 29.0715 15.0000
v 0.5869 29.0715 14.1000
v 0.8000 28.0000 14.1000
v -0.0201 29.9799 15.0000
v -0.0201 29.9799 14.1000
v -0.9285 30.5869 15.0000
v -0.9285 30.5869 14.1000
v -2.0000 30.8000 15.0000
v -2.0000 30.8000 14.1000
v -3.0715 30.5869 15.0000
v -3.0715 30.5869 14.1000
v -3.9799 29.9799 15.0000
v -3.9799 29.9799 14.1000
v -4.5869 29.0715 15.0000
v -4.5869 29.0715 14.1000
v -4.8000 28.0000 15.0000
v -4.8000 28.0000 14.1000
v -4.5869 26.9285 15.0000
v -4.5869 26.9285 14.1000
v -3.9799 26.0201 15.0000
v -3.9799 26.0201 14.1000
v -3.0715 25.4131 15.0000
v -3.0715 25.4131 14.1000
v -2.0000 25.2000 15.0000
v -2.0000 25.2000 14.1000
v -0.9285 25.4131 15.0000
v -0.9285 25.4131 14.1000
v -0.0201 26.0201 15.0000
v -0.0201 26.0201 14.1000
v 0.5869 26.9285 15.0000
v 0.5869 26.9285 14.1000
v -2.0000 13.0000 8.0000
v 2.0000 13.0000 8.0000
v 2.0000 15.0000 8.0000
v -2.0000 15.0000 8.0000
v -2.0000 13.0000 11.0000
v -2.0000 15.0000 11.0000
v 2.0000 15.0000 11.0000
v 2.0000 13.0000 11.0000
v -15.0000 13.0000 15.0000
v 15.0000 13.0000 15.0000
v 15.0000 21.0000 15.0000
v -15.0000 21.0000 15.0000
v -15.0000 13.0000 37.0000
v -15.0000 21.0000 37.0000
v 15.0000 21.0000 37.0000
v 15.0000 13.0000 37.0000
v -14.5000 11.0000 37.0000
v 14.5000 11.0000 37.0000
v 14.5000 15.0000 37.0000
v -14.5000 15.0000 37.0000
v -14.5000 13.0000 40.0000
v -14.5000 21.0000 40.0000
v 14.5000 21.0000 40.0000
v 14.5000 13.0000 40.0000
v -16.0000 36.0000 -17.0000
v 16.0000 36.0000 -17.0000
v 16.0000 40.0000 -17.0000
v -16.0000 40.0000 -17.0000
v -16.0000 36.0000 18.0000
v -16.0000 40.0000 18.0000
v 16.0000 40.0000 18.0000
v 16.0000 36.0000 18.0000
v -17.2000 11.5000 -12.0000
v -16.5000 11.5000 -12.0000
v -16.5000 25.0000 -12.0000
v -17.2000 25.0000 -12.0000
v -17.2000 11.5000 2.0000
v -17.2000 25.0000 2.0000
v -16.5000 25.0000 2.0000
v -16.5000 11.5000 2.0000
v -17.2000 11.5000 16.0000
v -17.2000 25.0000 16.0000
v -16.5000 25.0000 16.0000
v -16.5000 11.5000 16.0000
v 16.5000 11.5000 -12.0000
v 17.2000 11.5000 -12.0000
v 17.2000 25.0000 -12.0000
v 16.5000 25.0000 -12.0000
v 16.5000 11.5000 2.0000
v 16.5000 25.0000 2.0000
v 17.2000 25.0000 2.0000
v 17.2000 11.5000 2.0000
v 16.5000 11.5000 16.0000
v 16.5000 25.0000 16.0000
v 17.2000 25.0000 16.0000
v 17.2000 11.5000 16.0000
v -17.5000 12.0000 -34.0000
v -14.0000 12.0000 -34.0000
v -14.0000 22.0000 -34.0000
v -17.5000 22.0000 -34.0000
v -17.5000 12.0000 -15.0000
v -17.5000 22.0000 -15.0000
v -14.0000 22.0000 -15.0000
v -14.0000 12.0000 -15.0000
v 14.0000 12.0000 -34.0000
v 17.5000 12.0000 -34.0000
v 17.5000 22.0000 -34.0000
v 14.0000 22.0000 -34.0000
v 14.0000 12.0000 -15.0000
v 14.0000 22.0000 -15.0000
v 17.5000 22.0000 -15.0000
v 17.5000 12.0000 -15.0000
v -15.0000 10.0000 -38.0000
v 15.0000 10.0000 -38.0000
v 15.0000 22.0000 -38.0000
v -15.0000 22.0000 -38.0000
v -15.0000 10.0000 -34.0000
v -15.0000 22.0000 -34.0000
v 15.0000 22.0000 -34.0000
v 15.0000 10.0000 -34.0000
v -15.0000 10.0000 -15.0000
v -15.0000 12.0000 -15.0000
v 15.0000 12.0000 -15.0000
v 15.0000 10.0000 -15.0000
v -15.0000 10.0000 17.0000
v 15.0000 10.0000 17.0000
v 15.0000 12.0000 17.0000
v -15.0000 12.0000 17.0000
v -15.0000 25.0000 -15.0000
v -13.0000 25.0000 -15.0000
v -13.0000 12.0000 -15.0000
v -13.0000 12.0000 17.0000
v -13.0000 25.0000 17.0000
v -15.0000 25.0000 17.0000
v 13.0000 12.0000 -15.0000
v 13.0000 25.0000 -15.0000
v 15.0000 25.0000 -15.0000
v 13.0000 12.0000 17.0000
v 15.0000 25.0000 17.0000
v 13.0000 25.0000 17.0000
v -15.0000 12.0000 15.0000
v -15.0000 25.0000 15.0000
v 15.0000 25.0000 15.0000
v 15.0000 12.0000 15.0000
v -15.0000 12.0000 -13.0000
v 15.0000 12.0000 -13.0000
v 15.0000 25.0000 -13.0000
v -15.0000 25.0000 -13.0000
v -18.0000 7.0000 -33.0000
v -15.0000 7.0000 -33.0000
v -15.0000 12.0000 -33.0000
v -18.0000 12.0000 -33.0000
v -18.0000 7.0000 17.0000
v -18.0000 12.0000 17.0000
v -15.0000 7.0000 17.0000
v 15.0000 7.0000 -33.0000
v 18.0000 7.0000 -33.0000
v 18.0000 12.0000 -33.0000
v 15.0000 12.0000 -33.0000
v 15.0000 7.0000 17.0000
v 18.0000 12.0000 17.0000
v 18.0000 7.0000 17.0000
v -15.0000 12.0000 -19.0000
v 15.0000 12.0000 -19.0000
v 15.0000 36.0000 -19.0000
v -15.0000 36.0000 -19.0000
v -15.0000 12.0000 -14.0000
v -15.0000 36.0000 -14.0000
v 15.0000 36.0000 -14.0000
v 15.0000 12.0000 -14.0000
v -15.0000 12.0000 -17.0000
v 15.0000 12.0000 -17.0000
v 15.0000 21.0000 -17.0000
v -15.0000 21.0000 -17.0000
v -15.0000 21.0000 -14.0000
v 15.0000 21.0000 -14.0000
v -14.0000 14.0000 17.0000
v 14.0000 14.0000 17.0000
v 14.0000 20.0000 17.0000
v -14.0000 20.0000 17.0000
v -14.0000 14.0000 20.0000
v -14.0000 20.0000 20.0000
v 14.0000 20.0000 20.0000
v 14.0000 14.0000 20.0000
v -15.0000 5.0000 -35.0000
v 15.0000 5.0000 -35.0000
v 15.0000 10.0000 -35.0000
v -15.0000 10.0000 -35.0000
v -15.0000 5.0000 38.0000
v -15.0000 10.0000 38.0000
v 15.0000 10.0000 38.0000
v 15.0000 5.0000 38.0000
v -17.2500 12.0000 1.5000
v -16.4500 12.0000 1.5000
v -16.4500 36.0000 1.5000
v -17.2500 36.0000 1.5000
v -17.2500 12.0000 2.5000
v -17.2500 36.0000 2.5000
v -16.4500 36.0000 2.5000
v -16.4500 12.0000 2.5000
v -17.2500 12.0000 15.5000
v -16.4500 12.0000 15.5000
v -16.4500 36.0000 15.5000
v -17.2500 36.0000 15.5000
v -17.2500 12.0000 16.5000
v -17.2500 36.0000 16.5000
v -16.4500 36.0000 16.5000
v -16.4500 12.0000 16.5000
v 16.4500 12.0000 1.5000
v 17.2500 12.0000 1.5000
v 17.2500 36.0000 1.5000
v 16.4500 36.0000 1.5000
v 16.4500 12.0000 2.5000
v 16.4500 36.0000 2.5000
v 17.2500 36.0000 2.5000
v 17.2500 12.0000 2.5000
v 16.4500 12.0000 15.5000
v 17.2500 12.0000 15.5000
v 17.2500 36.0000 15.5000
v 16.4500 36.0000 15.5000
v 16.4500 12.0000 16.5000
v 16.4500 36.0000 16.5000
v 17.2500 36.0000 16.5000
v 17.2500 12.0000 16.5000
v -11.5000 13.0000 40.0000
v -11.5000 18.0000 40.0000
v -14.5000 18.0000 40.0000
v -14.5000 13.0000 40.5000
v -14.5000 18.0000 40.5000
v -11.5000 18.0000 40.5000
v -11.5000 13.0000 40.5000
v 11.5000 13.0000 40.0000
v 14.5000 18.0000 40.0000
v 11.5000 18.0000 40.0000
v 11.5000 13.0000 40.5000
v 11.5000 18.0000 40.5000
v 14.5000 18.0000 40.5000
v 14.5000 13.0000 40.5000
v -9.3497 26.6349 13.5000
v -9.1097 26.6349 13.5000
v -9.1097 26.8749 13.5000
v -9.3497 26.8749 13.5000
v -9.3497 26.6349 13.2500
v -9.3497 26.8749 13.2500
v -9.1097 26.8749 13.2500
v -9.1097 26.6349 13.2500
v -8.4534 26.1621 13.5000
v -8.2134 26.1621 13.5000
v -8.2134 26.4021 13.5000
v -8.4534 26.4021 13.5000
v -8.4534 26.1621 13.2500
v -8.4534 26.4021 13.2500
v -8.2134 26.4021 13.2500
v -8.2134 26.1621 13.2500
v -7.4453 26.2653 13.5000
v -7.2053 26.2653 13.5000
v -7.2053 26.5053 13.5000
v -7.4453 26.5053 13.5000
v -7.4453 26.2653 13.2500
v -7.4453 26.5053 13.2500
v -7.2053 26.5053 13.2500
v -7.2053 26.2653 13.2500
v -6.6634 26.9100 13.5000
v -6.4234 26.9100 13.5000
v -6.4234 27.1500 13.5000
v -6.6634 27.1500 13.5000
v -6.6634 26.9100 13.2500
v -6.6634 27.1500 13.2500
v -6.4234 27.1500 13.2500
v -6.4234 26.9100 13.2500
v -6.3700 27.8800 13.5000
v -6.1300 27.8800 13.5000
v -6.1300 28.1200 13.5000
v -6.3700 28.1200 13.5000
v -6.3700 27.8800 13.2500
v -6.3700 28.1200 13.2500
v -6.1300 28.1200 13.2500
v -6.1300 27.8800 13.2500
v -6.6634 28.8500 13.5000
v -6.4234 28.8500 13.5000
v -6.4234 29.0900 13.5000
v -6.6634 29.0900 13.5000
v -6.6634 28.8500 13.2500
v -6.6634 29.0900 13.2500
v -6.4234 29.0900 13.2500
v -6.4234 28.8500 13.2500
v -7.4453 29.4947 13.5000
v -7.2053 29.4947 13.5000
v -7.2053 29.7347 13.5000
v -7.4453 29.7347 13.5000
v -7.4453 29.4947 13.2500
v -7.4453 29.7347 13.2500
v -7.2053 29.7347 13.2500
v -7.2053 29.4947 13.2500
v -8.4534 29.5979 13.5000
v -8.2134 29.5979 13.5000
v -8.2134 29.8379 13.5000
v -8.4534 29.8379 13.5000
v -8.4534 29.5979 13.2500
v -8.4534 29.8379 13.2500
v -8.2134 29.8379 13.2500
v -8.2134 29.5979 13.2500
v -9.3497 29.1251 13.5000
v -9.1097 29.1251 13.5000
v -9.1097 29.3651 13.5000
v -9.3497 29.3651 13.5000
v -9.3497 29.1251 13.2500
v -9.3497 29.3651 13.2500
v -9.1097 29.3651 13.2500
v -9.1097 29.1251 13.2500
v -3.3497 26.6349 13.5000
v -3.1097 26.6349 13.5000
v -3.1097 26.8749 13.5000
v -3.3497 26.8749 13.5000
v -3.3497 26.6349 13.2500
v -3.3497 26.8749 13.2500
v -3.1097 26.8749 13.2500
v -3.1097 26.6349 13.2500
v -2.4534 26.1621 13.5000
v -2.2134 26.1621 13.5000
v -2.2134 26.4021 13.5000
v -2.4534 26.4021 13.5000
v -2.4534 26.1621 13.2500
v -2.4534 26.4021 13.2500
v -2.2134 26.4021 13.2500
v -2.2134 26.1621 13.2500
v -1.4453 26.2653 13.5000
v -1.2053 26.2653 13.5000
v -1.2053 26.5053 13.5000
v -1.4453 26.5053 13.5000
v -1.4453 26.2653 13.2500
v -1.4453 26.5053 13.2500
v -1.2053 26.5053 13.2500
v -1.2053 26.2653 13.2500
v -0.6634 26.9100 13.5000
v -0.4234 26.9100 13.5000
v -0.4234 27.1500 13.5000
v -0.6634 27.1500 13.5000
v -0.6634 26.9100 13.2500
v -0.6634 27.1500 13.2500
v -0.4234 27.1500 13.2500
v -0.4234 26.9100 13.2500
v -0.3700 27.8800 13.5000
v -0.1300 27.8800 13.5000
v -0.1300 28.1200 13.5000
v -0.3700 28.1200 13.5000
v -0.3700 27.8800 13.2500
v -0.3700 28.1200 13.2500
v -0.1300 28.1200 13.2500
v -0.1300 27.8800 13.2500
v -0.6634 28.8500 13.5000
v -0.4234 28.8500 13.5000
v -0.4234 29.0900 13.5000
v -0.6634 29.0900 13.5000
v -0.6634 28.8500 13.2500
v -0.6634 29.0900 13.2500
v -0.4234 29.0900 13.2500
v -0.4234 28.8500 13.2500
v -1.4453 29.4947 13.5000
v -1.2053 29.4947 13.5000
v -1.2053 29.7347 13.5000
v -1.4453 29.7347 13.5000
v -1.4453 29.4947 13.2500
v -1.4453 29.7347 13.2500
v -1.2053 29.7347 13.2500
v -1.2053 29.4947 13.2500
v -2.4534 29.5979 13.5000
v -2.2134 29.5979 13.5000
v -2.2134 29.8379 13.5000
v -2.4534 29.8379 13.5000
v -2.4534 29.5979 13.2500
v -2.4534 29.8379 13.2500
v -2.2134 29.8379 13.2500
v -2.2134 29.5979 13.2500
v -3.3497 29.1251 13.5000
v -3.1097 29.1251 13.5000
v -3.1097 29.3651 13.5000
v -3.3497 29.3651 13.5000
v -3.3497 29.1251 13.2500
v -3.3497 29.3651 13.2500
v -3.1097 29.3651 13.2500
v -3.1097 29.1251 13.2500
v -5.8000 28.0000 13.7750
v -5.9675 28.8419 13.7750
v -5.9675 28.8419 13.5250
v -5.8000 28.0000 13.5250
v -6.4444 29.5556 13.7750
v -6.4444 29.5556 13.5250
v -7.1581 30.0325 13.7750
v -7.1581 30.0325 13.5250
v -8.0000 30.2000 13.7750
v -8.0000 30.2000 13.5250
v -8.8419 30.0325 13.7750
v -8.8419 30.0325 13.5250
v -9.5556 29.5556 13.7750
v -9.5556 29.5556 13.5250
v -10.0325 28.8419 13.7750
v -10.0325 28.8419 13.5250
v -10.2000 28.0000 13.7750
v -10.2000 28.0000 13.5250
v -10.0325 27.1581 13.7750
v -10.0325 27.1581 13.5250
v -9.5556 26.4444 13.7750
v -9.5556 26.4444 13.5250
v -8.8419 25.9675 13.7750
v -8.8419 25.9675 13.5250
v -8.0000 25.8000 13.7750
v -8.0000 25.8000 13.5250
v -7.1581 25.9675 13.7750
v -7.1581 25.9675 13.5250
v -6.4444 26.4444 13.7750
v -6.4444 26.4444 13.5250
v -5.9675 27.1581 13.7750
v -5.9675 27.1581 13.5250
v 0.2000 28.0000 13.7750
v 0.0325 28.8419 13.7750
v 0.0325 28.8419 13.5250
v 0.2000 28.0000 13.5250
v -0.4444 29.5556 13.7750
v -0.4444 29.5556 13.5250
v -1.1581 30.0325 13.7750
v -1.1581 30.0325 13.5250
v -2.0000 30.2000 13.7750
v -2.0000 30.2000 13.5250
v -2.8419 30.0325 13.7750
v -2.8419 30.0325 13.5250
v -3.5556 29.5556 13.7750
v -3.5556 29.5556 13.5250
v -4.0325 28.8419 13.7750
v -4.0325 28.8419 13.5250
v -4.2000 28.0000 13.7750
v -4.2000 28.0000 13.5250
v -4.0325 27.1581 13.7750
v -4.0325 27.1581 13.5250
v -3.5556 26.4444 13.7750
v -3.5556 26.4444 13.5250
v -2.8419 25.9675 13.7750
v -2.8419 25.9675 13.5250
v -2.0000 25.8000 13.7750
v -2.0000 25.8000 13.5250
v -1.1581 25.9675 13.7750
v -1.1581 25.9675 13.5250
v -0.4444 26.4444 13.7750
v -0.4444 26.4444 13.5250
v 0.0325 27.1581 13.7750
v 0.0325 27.1581 13.5250
v -12.0000 25.0000 16.5000
v 12.0000 25.0000 16.5000
v 12.0000 36.0000 16.5000
v -12.0000 36.0000 16.5000
v -12.0000 25.0000 17.2000
v -12.0000 36.0000 17.2000
v 12.0000 36.0000 17.2000
v 12.0000 25.0000 17.2000
v -17.2500 25.0000 -11.0000
v -16.4500 25.0000 -11.0000
v -16.4500 36.0000 -11.0000
v -17.2500 36.0000 -11.0000
v -17.2500 25.0000 1.0000
v -17.2500 36.0000 1.0000
v -16.4500 36.0000 1.0000
v -16.4500 25.0000 1.0000
v -17.2500 25.0000 3.0000
v -16.4500 25.0000 3.0000
v -16.4500 36.0000 3.0000
v -17.2500 36.0000 3.0000
v -17.2500 25.0000 15.0000
v -17.2500 36.0000 15.0000
v -16.4500 36.0000 15.0000
v -16.4500 25.0000 15.0000
v 16.4500 25.0000 -11.0000
v 17.2500 25.0000 -11.0000
v 17.2500 36.0000 -11.0000
v 16.4500 36.0000 -11.0000
v 16.4500 25.0000 1.0000
v 16.4500 36.0000 1.0000
v 17.2500 36.0000 1.0000
v 17.2500 25.0000 1.0000
v 16.4500 25.0000 3.0000
v 17.2500 25.0000 3.0000
v 17.2500 36.0000 3.0000
v 16.4500 36.0000 3.0000
v 16.4500 25.0000 15.0000
v 16.4500 36.0000 15.0000
v 17.2500 36.0000 15.0000
v 17.2500 25.0000 15.0000
v -1.0000 16.0000 -13.0000
v 0.0000 16.0000 -13.0000
v 0.0000 20.0000 -13.0000
v -1.0000 20.0000 -13.0000
v -1.0000 16.0000 -12.2000
v -1.0000 20.0000 -12.2000
v 0.0000 20.0000 -12.2000
v 0.0000 16.0000 -12.2000
v 1.0000 16.0000 -13.0000
v 1.0000 20.0000 -13.0000
v 1.0000 20.0000 -12.2000
v 1.0000 16.0000 -12.2000
v -18.0000 5.0000 40.0000
v 18.0000 5.0000 40.0000
v 18.0000 10.0000 40.0000
v -18.0000 10.0000 40.0000
v -18.0000 5.0000 45.0000
v -18.0000 10.0000 45.0000
v 18.0000 10.0000 45.0000
v 18.0000 5.0000 45.0000
v -17.0000 18.0000 -17.0000
v -15.0000 18.0000 -17.0000
v -15.0000 36.0000 -17.0000
v -17.0000 36.0000 -17.0000
v -17.0000 18.0000 18.0000
v -17.0000 36.0000 18.0000
v -15.0000 36.0000 18.0000
v -15.0000 18.0000 18.0000
v -13.5000 18.0000 -17.0000
v -11.5000 18.0000 -17.0000
v -11.5000 36.0000 -17.0000
v -13.5000 36.0000 -17.0000
v -13.5000 18.0000 18.0000
v -13.5000 36.0000 18.0000
v -11.5000 36.0000 18.0000
v -11.5000 18.0000 18.0000
v 11.5000 18.0000 -17.0000
v 13.5000 18.0000 -17.0000
v 13.5000 36.0000 -17.0000
v 11.5000 36.0000 -17.0000
v 11.5000 18.0000 18.0000
v 11.5000 36.0000 18.0000
v 13.5000 36.0000 18.0000
v 13.5000 18.0000 18.0000
v 15.0000 18.0000 -17.0000
v 17.0000 18.0000 -17.0000
v 17.0000 36.0000 -17.0000
v 15.0000 36.0000 -17.0000
v 15.0000 18.0000 18.0000
v 15.0000 36.0000 18.0000
v 17.0000 36.0000 18.0000
v 17.0000 18.0000 18.0000
v -13.0000 24.5000 17.0000
v 13.0000 24.5000 17.0000
v 13.0000 37.0000 17.0000
v -13.0000 37.0000 17.0000
v -13.0000 24.5000 17.5000
v -13.0000 37.0000 17.5000
v 13.0000 37.0000 17.5000
v 13.0000 24.5000 17.5000
v -17.7000 21.0000 -9.0000
v -17.2000 21.0000 -9.0000
v -17.2000 22.2000 -9.0000
v -17.7000 22.2000 -9.0000
v -17.7000 21.0000 -6.0000
v -17.7000 22.2000 -6.0000
v -17.2000 22.2000 -6.0000
v -17.2000 21.0000 -6.0000
v -17.7000 21.0000 5.0000
v -17.2000 21.0000 5.0000
v -17.2000 22.2000 5.0000
v -17.7000 22.2000 5.0000
v -17.7000 21.0000 8.0000
v -17.7000 22.2000 8.0000
v -17.2000 22.2000 8.0000
v -17.2000 21.0000 8.0000
v 17.3000 21.0000 -9.0000
v 17.7000 21.0000 -9.0000
v 17.7000 22.2000 -9.0000
v 17.3000 22.2000 -9.0000
v 17.3000 21.0000 -6.0000
v 17.3000 22.2000 -6.0000
v 17.7000 22.2000 -6.0000
v 17.7000 21.0000 -6.0000
v 17.3000 21.0000 5.0000
v 17.7000 21.0000 5.0000
v 17.7000 22.2000 5.0000
v 17.3000 22.2000 5.0000
v 17.3000 21.0000 8.0000
v 17.3000 22.2000 8.0000
v 17.7000 22.2000 8.0000
v 17.7000 21.0000 8.0000
v -18.0000 5.0000 -41.0000
v 18.0000 5.0000 -41.0000
v 18.0000 10.0000 -41.0000
v -18.0000 10.0000 -41.0000
v -18.0000 5.0000 -38.0000
v -18.0000 10.0000 -38.0000
v 18.0000 10.0000 -38.0000
v 18.0000 5.0000 -38.0000
v -19.0000 30.0000 7.0000
v -17.0000 30.0000 7.0000
v -17.0000 36.0000 7.0000
v -19.0000 36.0000 7.0000
v -19.0000 30.0000 12.0000
v -19.0000 36.0000 12.0000
v -17.0000 36.0000 12.0000
v -17.0000 30.0000 12.0000
v 17.0000 30.0000 7.0000
v 19.0000 30.0000 7.0000
v 19.0000 36.0000 7.0000
v 17.0000 36.0000 7.0000
v 17.0000 30.0000 12.0000
v 17.0000 36.0000 12.0000
v 19.0000 36.0000 12.0000
v 19.0000 30.0000 12.0000
v -7.8000 20.0000 12.4000
v -7.9608 20.6000 12.4000
v -7.9608 20.6000 15.0000
v -7.8000 20.0000 15.0000
v -8.4000 21.0392 12.4000
v -8.4000 21.0392 15.0000
v -9.0000 21.2000 12.4000
v -9.0000 21.2000 15.0000
v -9.6000 21.0392 12.4000
v -9.6000 21.0392 15.0000
v -10.0392 20.6000 12.4000
v -10.0392 20.6000 15.0000
v -10.2000 20.0000 12.4000
v -10.2000 20.0000 15.0000
v -10.0392 19.4000 12.4000
v -10.0392 19.4000 15.0000
v -9.6000 18.9608 12.4000
v -9.6000 18.9608 15.0000
v -9.0000 18.8000 12.4000
v -9.0000 18.8000 15.0000
v -8.4000 18.9608 12.4000
v -8.4000 18.9608 15.0000
v -7.9608 19.4000 12.4000
v -7.9608 19.4000 15.0000
v -10.2000 20.1000 11.1000
v -7.8000 20.1000 11.1000
v -7.8000 21.9000 11.1000
v -10.2000 21.9000 11.1000
v -10.2000 20.1000 12.4000
v -10.2000 21.9000 12.4000
v -7.8000 21.9000 12.4000
v -7.8000 20.1000 12.4000
v -1.0000 14.0000 8.0000
v 1.0000 14.0000 8.0000
v 1.0000 21.0000 8.0000
v -1.0000 21.0000 8.0000
v -1.0000 14.0000 11.0000
v -1.0000 21.0000 11.0000
v 1.0000 21.0000 11.0000
v 1.0000 14.0000 11.0000
v -15.0000 12.0000 37.5000
v -11.0000 12.0000 37.5000
v -11.0000 19.0000 37.5000
v -15.0000 19.0000 37.5000
v -15.0000 12.0000 40.0000
v -15.0000 19.0000 40.0000
v 11.0000 12.0000 37.5000
v 15.0000 12.0000 37.5000
v 15.0000 19.0000 37.5000
v 11.0000 19.0000 37.5000
v 15.0000 19.0000 40.0000
v 15.0000 12.0000 40.0000
v -15.0000 4.0000 44.0000
v 15.0000 4.0000 44.0000
v 15.0000 8.0000 44.0000
v -15.0000 8.0000 44.0000
v -15.0000 4.0000 46.0000
v -15.0000 8.0000 46.0000
v 15.0000 8.0000 46.0000
v 15.0000 4.0000 46.0000
v -20.0000 32.0000 6.0000
v -18.0000 32.0000 6.0000
v -18.0000 39.0000 6.0000
v -20.0000 39.0000 6.0000
v -20.0000 32.0000 10.0000
v -20.0000 39.0000 10.0000
v -18.0000 39.0000 10.0000
v -18.0000 32.0000 10.0000
v 18.0000 32.0000 6.0000
v 20.0000 32.0000 6.0000
v 20.0000 39.0000 6.0000
v 18.0000 39.0000 6.0000
v 18.0000 32.0000 10.0000
v 18.0000 39.0000 10.0000
v 20.0000 39.0000 10.0000
v 20.0000 32.0000 10.0000
v -8.1800 27.8000 12.3500
v -8.1800 30.1000 12.3500
v -7.8200 30.1000 12.3500
v -7.8200 27.8000 12.3500
v -8.1800 27.8000 12.6500
v -7.8200 27.8000 12.6500
v -7.8200 30.1000 12.6500
v -8.1800 30.1000 12.6500
v -2.1800 27.8000 12.3500
v -2.1800 30.1000 12.3500
v -1.8200 30.1000 12.3500
v -1.8200 27.8000 12.3500
v -2.1800 27.8000 12.6500
v -1.8200 27.8000 12.6500
v -1.8200 30.1000 12.6500
v -2.1800 30.1000 12.6500
v -10.8000 12.0000 42.0000
v -9.2000 12.0000 42.0000
v -9.2000 19.0000 42.0000
v -10.8000 19.0000 42.0000
v -10.8000 12.0000 43.0000
v -10.8000 19.0000 43.0000
v -9.2000 19.0000 43.0000
v -9.2000 12.0000 43.0000
v -8.3000 12.0000 42.0000
v -6.7000 12.0000 42.0000
v -6.7000 19.0000 42.0000
v -8.3000 19.0000 42.0000
v -8.3000 12.0000 43.0000
v -8.3000 19.0000 43.0000
v -6.7000 19.0000 43.0000
v -6.7000 12.0000 43.0000
v -5.8000 12.0000 42.0000
v -4.2000 12.0000 42.0000
v -4.2000 19.0000 42.0000
v -5.8000 19.0000 42.0000
v -5.8000 12.0000 43.0000
v -5.8000 19.0000 43.0000
v -4.2000 19.0000 43.0000
v -4.2000 12.0000 43.0000
v -3.3000 12.0000 42.0000
v -1.7000 12.0000 42.0000
v -1.7000 19.0000 42.0000
v -3.3000 19.0000 42.0000
v -3.3000 12.0000 43.0000
v -3.3000 19.0000 43.0000
v -1.7000 19.0000 43.0000
v -1.7000 12.0000 43.0000
v -0.8000 12.0000 42.0000
v 0.8000 12.0000 42.0000
v 0.8000 19.0000 42.0000
v -0.8000 19.0000 42.0000
v -0.8000 12.0000 43.0000
v -0.8000 19.0000 43.0000
v 0.8000 19.0000 43.0000
v 0.8000 12.0000 43.0000
v 1.7000 12.0000 42.0000
v 3.3000 12.0000 42.0000
v 3.3000 19.0000 42.0000
v 1.7000 19.0000 42.0000
v 1.7000 12.0000 43.0000
v 1.7000 19.0000 43.0000
v 3.3000 19.0000 43.0000
v 3.3000 12.0000 43.0000
v 4.2000 12.0000 42.0000
v 5.8000 12.0000 42.0000
v 5.8000 19.0000 42.0000
v 4.2000 19.0000 42.0000
v 4.2000 12.0000 43.0000
v 4.2000 19.0000 43.0000
v 5.8000 19.0000 43.0000
v 5.8000 12.0000 43.0000
v 6.7000 12.0000 42.0000
v 8.3000 12.0000 42.0000
v 8.3000 19.0000 42.0000
v 6.7000 19.0000 42.0000
v 6.7000 12.0000 43.0000
v 6.7000 19.0000 43.0000
v 8.3000 19.0000 43.0000
v 8.3000 12.0000 43.0000
v 9.2000 12.0000 42.0000
v 10.8000 12.0000 42.0000
v 10.8000 19.0000 42.0000
v 9.2000 19.0000 42.0000
v 9.2000 12.0000 43.0000
v 9.2000 19.0000 43.0000
v 10.8000 19.0000 43.0000
v 10.8000 12.0000 43.0000
v -19.0000 5.0000 -21.0000
v -15.0000 5.0000 -21.0000
v -15.0000 8.0000 -21.0000
v -19.0000 8.0000 -21.0000
v -19.0000 5.0000 -5.0000
v -19.0000 8.0000 -5.0000
v -15.0000 8.0000 -5.0000
v -15.0000 5.0000 -5.0000
v 15.0000 5.0000 -21.0000
v 19.0000 5.0000 -21.0000
v 19.0000 8.0000 -21.0000
v 15.0000 8.0000 -21.0000
v 15.0000 5.0000 -5.0000
v 15.0000 8.0000 -5.0000
v 19.0000 8.0000 -5.0000
v 19.0000 5.0000 -5.0000
v -14.0000 9.0000 16.0000
v -22.0000 9.0000 16.0000
v -22.0000 16.0000 16.0000
v -14.0000 16.0000 16.0000
v -14.0000 9.0000 31.0000
v -14.0000 16.0000 31.0000
v -22.0000 16.0000 31.0000
v -22.0000 9.0000 31.0000
v -14.0000 9.0000 -30.0000
v -22.0000 9.0000 -30.0000
v -22.0000 16.0000 -30.0000
v -14.0000 16.0000 -30.0000
v -14.0000 9.0000 -15.0000
v -14.0000 16.0000 -15.0000
v -22.0000 16.0000 -15.0000
v -22.0000 9.0000 -15.0000
v 14.0000 9.0000 16.0000
v 22.0000 9.0000 16.0000
v 22.0000 16.0000 16.0000
v 14.0000 16.0000 16.0000
v 14.0000 9.0000 31.0000
v 14.0000 16.0000 31.0000
v 22.0000 16.0000 31.0000
v 22.0000 9.0000 31.0000
v 14.0000 9.0000 -30.0000
v 22.0000 9.0000 -30.0000
v 22.0000 16.0000 -30.0000
v 14.0000 16.0000 -30.0000
v 14.0000 9.0000 -15.0000
v 14.0000 16.0000 -15.0000
v 22.0000 16.0000 -15.0000
v 22.0000 9.0000 -15.0000
v -14.0000 19.5000 15.0000
v 14.0000 19.5000 15.0000
v 14.0000 22.0000 15.0000
v -14.0000 22.0000 15.0000
v -14.0000 19.5000 20.0000
v -14.0000 22.0000 20.0000
v 14.0000 22.0000 20.0000
v 14.0000 19.5000 20.0000
v -18.0000 2.0000 -41.0000
v -16.0000 2.0000 -41.0000
v -16.0000 7.0000 -41.0000
v -18.0000 7.0000 -41.0000
v -18.0000 2.0000 -34.0000
v -18.0000 7.0000 -34.0000
v -16.0000 7.0000 -34.0000
v -16.0000 2.0000 -34.0000
v 16.0000 2.0000 -41.0000
v 18.0000 2.0000 -41.0000
v 18.0000 7.0000 -41.0000
v 16.0000 7.0000 -41.0000
v 16.0000 2.0000 -34.0000
v 16.0000 7.0000 -34.0000
v 18.0000 7.0000 -34.0000
v 18.0000 2.0000 -34.0000
v -14.5000 15.0000 -30.0000
v 14.5000 15.0000 -30.0000
v 14.5000 21.0000 -30.0000
v -14.5000 21.0000 -30.0000
v -14.5000 15.0000 -13.0000
v -14.5000 21.0000 -13.0000
v 14.5000 21.0000 -13.0000
v 14.5000 15.0000 -13.0000
v -0.3000 21.0000 -30.8000
v 0.3000 21.0000 -30.8000
v 0.3000 24.0000 -30.8000
v -0.3000 24.0000 -30.8000
v -0.3000 21.0000 -12.2000
v -0.3000 24.0000 -12.2000
v 0.3000 24.0000 -12.2000
v 0.3000 21.0000 -12.2000
v -14.7000 21.0000 -30.5000
v 14.7000 21.0000 -30.5000
v 14.7000 24.0000 -30.5000
v -14.7000 24.0000 -30.5000
v -14.7000 21.0000 -12.5000
v -14.7000 24.0000 -12.5000
v 14.7000 24.0000 -12.5000
v 14.7000 21.0000 -12.5000
vt 0.00750 0.88250
vt 0.11750 0.88250
vt 0.11750 0.99250
vt 0.00750 0.99250
vt 0.13250 0.88250
vt 0.24250 0.88250
vt 0.24250 0.99250
vt 0.13250 0.99250
vt 0.25750 0.88250
vt 0.36750 0.88250
vt 0.36750 0.99250
vt 0.25750 0.99250
vt 0.50750 0.88250
vt 0.61750 0.88250
vt 0.61750 0.99250
vt 0.50750 0.99250
vt 0.63250 0.88250
vt 0.74250 0.88250
vt 0.74250 0.99250
vt 0.63250 0.99250
vt 0.75750 0.88250
vt 0.86750 0.88250
vt 0.86750 0.99250
vt 0.75750 0.99250
vt 0.88250 0.88250
vt 0.99250 0.88250
vt 0.99250 0.99250
vt 0.88250 0.99250
vt 0.13250 0.75750
vt 0.24250 0.75750
vt 0.24250 0.86750
vt 0.13250 0.86750
vt 0.25750 0.75750
vt 0.36750 0.75750
vt 0.36750 0.86750
vt 0.25750 0.86750
vt 0.38250 0.75750
vt 0.49250 0.75750
vt 0.49250 0.86750
vt 0.38250 0.86750
vt 0.50750 0.75750
vt 0.61750 0.75750
vt 0.61750 0.86750
vt 0.50750 0.86750
vt 0.63250 0.75750
vt 0.74250 0.75750
vt 0.74250 0.86750
vt 0.63250 0.86750
vt 0.88250 0.75750
vt 0.99250 0.75750
vt 0.99250 0.86750
vt 0.88250 0.86750
vt 0.00750 0.63250
vt 0.11750 0.63250
vt 0.11750 0.74250
vt 0.00750 0.74250
usemtl black
f 1/1 2/2 3/3 4/4
f 5/1 6/2 7/3 8/4
f 1/1 5/2 8/3 2/4
f 4/1 3/2 7/3 6/4
f 2/1 8/2 7/3 3/4
f 1/1 4/2 6/3 5/4
f 9/1 10/2 11/3 12/4
f 13/1 14/2 15/3 16/4
f 9/1 13/2 16/3 10/4
f 12/1 11/2 15/3 14/4
f 10/1 16/2 15/3 11/4
f 9/1 12/2 14/3 13/4
f 17/1 18/2 19/3 20/4
f 21/1 22/2 23/3 24/4
f 17/1 21/2 24/3 18/4
f 20/1 19/2 23/3 22/4
f 18/1 24/2 23/3 19/4
f 17/1 20/2 22/3 21/4
f 25/1 26/2 27/3 28/4
f 29/1 30/2 31/3 32/4
f 25/1 29/2 32/3 26/4
f 28/1 27/2 31/3 30/4
f 26/1 32/2 31/3 27/4
f 25/1 28/2 30/3 29/4
f 33/1 34/2 35/3 36/4
f 37/1 38/2 39/3 40/4
f 33/1 37/2 40/3 34/4
f 36/1 35/2 39/3 38/4
f 34/1 40/2 39/3 35/4
f 33/1 36/2 38/3 37/4
f 41/1 42/2 43/3 44/4
f 45/1 46/2 47/3 48/4
f 41/1 45/2 48/3 42/4
f 44/1 43/2 47/3 46/4
f 42/1 48/2 47/3 43/4
f 41/1 44/2 46/3 45/4
f 49/1 50/2 51/3 52/4
f 53/1 54/2 55/3 56/4
f 49/1 53/2 56/3 50/4
f 52/1 51/2 55/3 54/4
f 50/1 56/2 55/3 51/4
f 49/1 52/2 54/3 53/4
f 57/1 58/2 59/3 60/4
f 61/1 62/2 63/3 64/4
f 57/1 61/2 64/3 58/4
f 60/1 59/2 63/3 62/4
f 58/1 64/2 63/3 59/4
f 57/1 60/2 62/3 61/4
f 65/1 66/2 67/3 68/4
f 69/1 70/2 71/3 72/4
f 65/1 69/2 72/3 66/4
f 68/1 67/2 71/3 70/4
f 66/1 72/2 71/3 67/4
f 65/1 68/2 70/3 69/4
f 73/1 74/2 75/3 76/4
f 77/1 78/2 79/3 80/4
f 73/1 77/2 80/3 74/4
f 76/1 75/2 79/3 78/4
f 74/1 80/2 79/3 75/4
f 73/1 76/2 78/3 77/4
f 81/1 82/2 83/3 84/4
f 85/1 86/2 87/3 88/4
f 81/1 85/2 88/3 82/4
f 84/1 83/2 87/3 86/4
f 82/1 88/2 87/3 83/4
f 81/1 84/2 86/3 85/4
f 89/1 90/2 91/3 92/4
f 93/1 94/2 95/3 96/4
f 89/1 93/2 96/3 90/4
f 92/1 91/2 95/3 94/4
f 90/1 96/2 95/3 91/4
f 89/1 92/2 94/3 93/4
f 97/1 98/2 99/3 100/4
f 101/1 102/2 103/3 104/4
f 97/1 101/2 104/3 98/4
f 100/1 99/2 103/3 102/4
f 98/1 104/2 103/3 99/4
f 97/1 100/2 102/3 101/4
f 105/1 106/2 107/3 108/4
f 109/1 110/2 111/3 112/4
f 105/1 109/2 112/3 106/4
f 108/1 107/2 111/3 110/4
f 106/1 112/2 111/3 107/4
f 105/1 108/2 110/3 109/4
f 113/1 114/2 115/3 116/4
f 117/1 118/2 119/3 120/4
f 113/1 117/2 120/3 114/4
f 116/1 115/2 119/3 118/4
f 114/1 120/2 119/3 115/4
f 113/1 116/2 118/3 117/4
f 121/1 122/2 123/3 124/4
f 125/1 126/2 127/3 128/4
f 121/1 125/2 128/3 122/4
f 124/1 123/2 127/3 126/4
f 122/1 128/2 127/3 123/4
f 121/1 124/2 126/3 125/4
f 129/1 130/2 131/3 132/4
f 133/1 134/2 135/3 136/4
f 129/1 133/2 136/3 130/4
f 132/1 131/2 135/3 134/4
f 130/1 136/2 135/3 131/4
f 129/1 132/2 134/3 133/4
f 137/1 138/2 139/3 140/4
f 141/1 142/2 143/3 144/4
f 137/1 141/2 144/3 138/4
f 140/1 139/2 143/3 142/4
f 138/1 144/2 143/3 139/4
f 137/1 140/2 142/3 141/4
f 145/1 146/2 147/3 148/4
f 149/1 150/2 151/3 152/4
f 145/1 149/2 152/3 146/4
f 148/1 147/2 151/3 150/4
f 146/1 152/2 151/3 147/4
f 145/1 148/2 150/3 149/4
f 153/1 154/2 155/3 156/4
f 157/1 158/2 159/3 160/4
f 153/1 157/2 160/3 154/4
f 156/1 155/2 159/3 158/4
f 154/1 160/2 159/3 155/4
f 153/1 156/2 158/3 157/4
f 161/1 162/2 163/3 164/4
f 165/1 166/2 167/3 168/4
f 161/1 165/2 168/3 162/4
f 164/1 163/2 167/3 166/4
f 162/1 168/2 167/3 163/4
f 161/1 164/2 166/3 165/4
f 169/1 170/2 171/3 172/4
f 170/1 173/2 174/3 171/4
f 173/1 175/2 176/3 174/4
f 175/1 177/2 178/3 176/4
f 177/1 179/2 180/3 178/4
f 179/1 181/2 182/3 180/4
f 181/1 183/2 184/3 182/4
f 183/1 185/2 186/3 184/4
f 185/1 187/2 188/3 186/4
f 187/1 189/2 190/3 188/4
f 189/1 191/2 192/3 190/4
f 191/1 193/2 194/3 192/4
f 193/1 195/2 196/3 194/4
f 195/1 197/2 198/3 196/4
f 197/1 199/2 200/3 198/4
f 199/1 169/2 172/3 200/4
f 172/1 171/1 174/1 176/1 178/1 180/1 182/1 184/1 186/1 188/1 190/1 192/1 194/1 196/1 198/1 200/1
f 199/1 197/1 195/1 193/1 191/1 189/1 187/1 185/1 183/1 181/1 179/1 177/1 175/1 173/1 170/1 169/1
f 201/1 202/2 203/3 204/4
f 202/1 205/2 206/3 203/4
f 205/1 207/2 208/3 206/4
f 207/1 209/2 210/3 208/4
f 209/1 211/2 212/3 210/4
f 211/1 213/2 214/3 212/4
f 213/1 215/2 216/3 214/4
f 215/1 217/2 218/3 216/4
f 217/1 219/2 220/3 218/4
f 219/1 221/2 222/3 220/4
f 221/1 223/2 224/3 222/4
f 223/1 225/2 226/3 224/4
f 225/1 227/2 228/3 226/4
f 227/1 229/2 230/3 228/4
f 229/1 231/2 232/3 230/4
f 231/1 201/2 204/3 232/4
f 204/1 203/1 206/1 208/1 210/1 212/1 214/1 216/1 218/1 220/1 222/1 224/1 226/1 228/1 230/1 232/1
f 231/1 229/1 227/1 225/1 223/1 221/1 219/1 217/1 215/1 213/1 211/1 209/1 207/1 205/1 202/1 201/1
f 233/1 234/2 235/3 236/4
f 237/1 238/2 239/3 240/4
f 233/1 237/2 240/3 234/4
f 236/1 235/2 239/3 238/4
f 234/1 240/2 239/3 235/4
f 233/1 236/2 238/3 237/4
usemtl body_blue
f 241/5 242/6 243/7 244/8
f 245/5 246/6 247/7 248/8
f 241/5 245/6 248/7 242/8
f 244/5 243/6 247/7 246/8
f 242/5 248/6 247/7 243/8
f 241/5 244/6 246/7 245/8
f 249/5 250/6 251/7 252/8
f 253/5 254/6 255/7 256/8
f 249/5 253/6 256/7 250/8
f 252/5 251/6 255/7 254/8
f 250/5 256/6 255/7 251/8
f 249/5 252/6 254/7 253/8
f 257/5 258/6 259/7 260/8
f 261/5 262/6 263/7 264/8
f 257/5 261/6 264/7 258/8
f 260/5 259/6 263/7 262/8
f 258/5 264/6 263/7 259/8
f 257/5 260/6 262/7 261/8
f 265/5 266/6 267/7 268/8
f 269/5 270/6 271/7 272/8
f 265/5 269/6 272/7 266/8
f 268/5 267/6 271/7 270/8
f 266/5 272/6 271/7 267/8
f 265/5 268/6 270/7 269/8
f 269/5 272/6 271/7 270/8
f 273/5 274/6 275/7 276/8
f 269/5 273/6 276/7 272/8
f 270/5 271/6 275/7 274/8
f 272/5 276/6 275/7 271/8
f 269/5 270/6 274/7 273/8
f 277/5 278/6 279/7 280/8
f 281/5 282/6 283/7 284/8
f 277/5 281/6 284/7 278/8
f 280/5 279/6 283/7 282/8
f 278/5 284/6 283/7 279/8
f 277/5 280/6 282/7 281/8
f 281/5 284/6 283/7 282/8
f 285/5 286/6 287/7 288/8
f 281/5 285/6 288/7 284/8
f 282/5 283/6 287/7 286/8
f 284/5 288/6 287/7 283/8
f 281/5 282/6 286/7 285/8
f 289/5 290/6 291/7 292/8
f 293/5 294/6 295/7 296/8
f 289/5 293/6 296/7 290/8
f 292/5 291/6 295/7 294/8
f 290/5 296/6 295/7 291/8
f 289/5 292/6 294/7 293/8
f 297/5 298/6 299/7 300/8
f 301/5 302/6 303/7 304/8
f 297/5 301/6 304/7 298/8
f 300/5 299/6 303/7 302/8
f 298/5 304/6 303/7 299/8
f 297/5 300/6 302/7 301/8
f 305/5 306/6 307/7 308/8
f 309/5 310/6 311/7 312/8
f 305/5 309/6 312/7 306/8
f 308/5 307/6 311/7 310/8
f 306/5 312/6 311/7 307/8
f 305/5 308/6 310/7 309/8
f 313/5 314/6 315/7 316/8
f 317/5 318/6 319/7 320/8
f 313/5 316/6 318/7 317/8
f 315/5 314/6 320/7 319/8
f 316/5 315/6 319/7 318/8
f 313/5 317/6 320/7 314/8
f 314/5 321/6 322/7 323/8
f 320/5 324/6 325/7 326/8
f 314/5 323/6 324/7 320/8
f 322/5 321/6 326/7 325/8
f 323/5 322/6 325/7 324/8
f 314/5 320/6 326/7 321/8
f 327/5 328/6 329/7 315/8
f 330/5 319/6 331/7 332/8
f 327/5 315/6 319/7 330/8
f 329/5 328/6 332/7 331/8
f 315/5 329/6 331/7 319/8
f 327/5 330/6 332/7 328/8
f 333/5 334/6 335/7 336/8
f 320/5 319/6 331/7 326/8
f 333/5 336/6 319/7 320/8
f 335/5 334/6 326/7 331/8
f 336/5 335/6 331/7 319/8
f 333/5 320/6 326/7 334/8
f 314/5 321/6 329/7 315/8
f 337/5 338/6 339/7 340/8
f 314/5 315/6 338/7 337/8
f 329/5 321/6 340/7 339/8
f 315/5 329/6 339/7 338/8
f 314/5 337/6 340/7 321/8
usemtl body_blue_dark
f 341/9 342/10 343/11 344/12
f 345/9 346/10 320/11 347/12
f 341/9 345/10 347/11 342/12
f 344/9 343/10 320/11 346/12
f 342/9 347/10 320/11 343/12
f 341/9 344/10 346/11 345/12
f 348/9 349/10 350/11 351/12
f 352/9 319/10 353/11 354/12
f 348/9 352/10 354/11 349/12
f 351/9 350/10 353/11 319/12
f 349/9 354/10 353/11 350/12
f 348/9 351/10 319/11 352/12
f 355/9 356/10 357/11 358/12
f 359/9 360/10 361/11 362/12
f 355/9 359/10 362/11 356/12
f 358/9 357/10 361/11 360/12
f 356/9 362/10 361/11 357/12
f 355/9 358/10 360/11 359/12
f 363/9 364/10 365/11 366/12
f 359/9 367/10 368/11 362/12
f 363/9 359/10 362/11 364/12
f 366/9 365/10 368/11 367/12
f 364/9 362/10 368/11 365/12
f 363/9 366/10 367/11 359/12
f 369/9 370/10 371/11 372/12
f 373/9 374/10 375/11 376/12
f 369/9 373/10 376/11 370/12
f 372/9 371/10 375/11 374/12
f 370/9 376/10 375/11 371/12
f 369/9 372/10 374/11 373/12
usemtl body_blue_shadow
f 377/13 378/14 379/15 380/16
f 381/13 382/14 383/15 384/16
f 377/13 381/14 384/15 378/16
f 380/13 379/14 383/15 382/16
f 378/13 384/14 383/15 379/16
f 377/13 380/14 382/15 381/16
f 385/13 386/14 387/15 388/16
f 389/13 390/14 391/15 392/16
f 385/13 389/14 392/15 386/16
f 388/13 387/14 391/15 390/16
f 386/13 392/14 391/15 387/16
f 385/13 388/14 390/15 389/16
f 393/13 394/14 395/15 396/16
f 397/13 398/14 399/15 400/16
f 393/13 397/14 400/15 394/16
f 396/13 395/14 399/15 398/16
f 394/13 400/14 399/15 395/16
f 393/13 396/14 398/15 397/16
f 401/13 402/14 403/15 404/16
f 405/13 406/14 407/15 408/16
f 401/13 405/14 408/15 402/16
f 404/13 403/14 407/15 406/16
f 402/13 408/14 407/15 403/16
f 401/13 404/14 406/15 405/16
f 409/13 410/14 411/15 412/16
f 413/13 414/14 415/15 416/16
f 409/13 413/14 416/15 410/16
f 412/13 411/14 415/15 414/16
f 410/13 416/14 415/15 411/16
f 409/13 412/14 414/15 413/16
usemtl gauge
f 253/17 417/18 418/19 419/20
f 420/17 421/18 422/19 423/20
f 253/17 420/18 423/19 417/20
f 419/17 418/18 422/19 421/20
f 417/17 423/18 422/19 418/20
f 253/17 419/18 421/19 420/20
f 424/17 256/18 425/19 426/20
f 427/17 428/18 429/19 430/20
f 424/17 427/18 430/19 256/20
f 426/17 425/18 429/19 428/20
f 256/17 430/18 429/19 425/20
f 424/17 426/18 428/19 427/20
f 431/17 432/18 433/19 434/20
f 435/17 436/18 437/19 438/20
f 431/17 435/18 438/19 432/20
f 434/17 433/18 437/19 436/20
f 432/17 438/18 437/19 433/20
f 431/17 434/18 436/19 435/20
f 439/17 440/18 441/19 442/20
f 443/17 444/18 445/19 446/20
f 439/17 443/18 446/19 440/20
f 442/17 441/18 445/19 444/20
f 440/17 446/18 445/19 441/20
f 439/17 442/18 444/19 443/20
f 447/17 448/18 449/19 450/20
f 451/17 452/18 453/19 454/20
f 447/17 451/18 454/19 448/20
f 450/17 449/18 453/19 452/20
f 448/17 454/18 453/19 449/20
f 447/17 450/18 452/19 451/20
f 455/17 456/18 457/19 458/20
f 459/17 460/18 461/19 462/20
f 455/17 459/18 462/19 456/20
f 458/17 457/18 461/19 460/20
f 456/17 462/18 461/19 457/20
f 455/17 458/18 460/19 459/20
f 463/17 464/18 465/19 466/20
f 467/17 468/18 469/19 470/20
f 463/17 467/18 470/19 464/20
f 466/17 465/18 469/19 468/20
f 464/17 470/18 469/19 465/20
f 463/17 466/18 468/19 467/20
f 471/17 472/18 473/19 474/20
f 475/17 476/18 477/19 478/20
f 471/17 475/18 478/19 472/20
f 474/17 473/18 477/19 476/20
f 472/17 478/18 477/19 473/20
f 471/17 474/18 476/19 475/20
f 479/17 480/18 481/19 482/20
f 483/17 484/18 485/19 486/20
f 479/17 483/18 486/19 480/20
f 482/17 481/18 485/19 484/20
f 480/17 486/18 485/19 481/20
f 479/17 482/18 484/19 483/20
f 487/17 488/18 489/19 490/20
f 491/17 492/18 493/19 494/20
f 487/17 491/18 494/19 488/20
f 490/17 489/18 493/19 492/20
f 488/17 494/18 493/19 489/20
f 487/17 490/18 492/19 491/20
f 495/17 496/18 497/19 498/20
f 499/17 500/18 501/19 502/20
f 495/17 499/18 502/19 496/20
f 498/17 497/18 501/19 500/20
f 496/17 502/18 501/19 497/20
f 495/17 498/18 500/19 499/20
f 503/17 504/18 505/19 506/20
f 507/17 508/18 509/19 510/20
f 503/17 507/18 510/19 504/20
f 506/17 505/18 509/19 508/20
f 504/17 510/18 509/19 505/20
f 503/17 506/18 508/19 507/20
f 511/17 512/18 513/19 514/20
f 515/17 516/18 517/19 518/20
f 511/17 515/18 518/19 512/20
f 514/17 513/18 517/19 516/20
f 512/17 518/18 517/19 513/20
f 511/17 514/18 516/19 515/20
f 519/17 520/18 521/19 522/20
f 523/17 524/18 525/19 526/20
f 519/17 523/18 526/19 520/20
f 522/17 521/18 525/19 524/20
f 520/17 526/18 525/19 521/20
f 519/17 522/18 524/19 523/20
f 527/17 528/18 529/19 530/20
f 531/17 532/18 533/19 534/20
f 527/17 531/18 534/19 528/20
f 530/17 529/18 533/19 532/20
f 528/17 534/18 533/19 529/20
f 527/17 530/18 532/19 531/20
f 535/17 536/18 537/19 538/20
f 539/17 540/18 541/19 542/20
f 535/17 539/18 542/19 536/20
f 538/17 537/18 541/19 540/20
f 536/17 542/18 541/19 537/20
f 535/17 538/18 540/19 539/20
f 543/17 544/18 545/19 546/20
f 547/17 548/18 549/19 550/20
f 543/17 547/18 550/19 544/20
f 546/17 545/18 549/19 548/20
f 544/17 550/18 549/19 545/20
f 543/17 546/18 548/19 547/20
f 551/17 552/18 553/19 554/20
f 555/17 556/18 557/19 558/20
f 551/17 555/18 558/19 552/20
f 554/17 553/18 557/19 556/20
f 552/17 558/18 557/19 553/20
f 551/17 554/18 556/19 555/20
f 559/17 560/18 561/19 562/20
f 563/17 564/18 565/19 566/20
f 559/17 563/18 566/19 560/20
f 562/17 561/18 565/19 564/20
f 560/17 566/18 565/19 561/20
f 559/17 562/18 564/19 563/20
f 567/17 568/18 569/19 570/20
f 571/17 572/18 573/19 574/20
f 567/17 571/18 574/19 568/20
f 570/17 569/18 573/19 572/20
f 568/17 574/18 573/19 569/20
f 567/17 570/18 572/19 571/20
usemtl gauge_dark
f 575/21 576/22 577/23 578/24
f 576/21 579/22 580/23 577/24
f 579/21 581/22 582/23 580/24
f 581/21 583/22 584/23 582/24
f 583/21 585/22 586/23 584/24
f 585/21 587/22 588/23 586/24
f 587/21 589/22 590/23 588/24
f 589/21 591/22 592/23 590/24
f 591/21 593/22 594/23 592/24
f 593/21 595/22 596/23 594/24
f 595/21 597/22 598/23 596/24
f 597/21 599/22 600/23 598/24
f 599/21 601/22 602/23 600/24
f 601/21 603/22 604/23 602/24
f 603/21 605/22 606/23 604/24
f 605/21 575/22 578/23 606/24
f 578/21 577/21 580/21 582/21 584/21 586/21 588/21 590/21 592/21 594/21 596/21 598/21 600/21 602/21 604/21 606/21
f 605/21 603/21 601/21 599/21 597/21 595/21 593/21 591/21 589/21 587/21 585/21 583/21 581/21 579/21 576/21 575/21
f 607/21 608/22 609/23 610/24
f 608/21 611/22 612/23 609/24
f 611/21 613/22 614/23 612/24
f 613/21 615/22 616/23 614/24
f 615/21 617/22 618/23 616/24
f 617/21 619/22 620/23 618/24
f 619/21 621/22 622/23 620/24
f 621/21 623/22 624/23 622/24
f 623/21 625/22 626/23 624/24
f 625/21 627/22 628/23 626/24
f 627/21 629/22 630/23 628/24
f 629/21 631/22 632/23 630/24
f 631/21 633/22 634/23 632/24
f 633/21 635/22 636/23 634/24
f 635/21 637/22 638/23 636/24
f 637/21 607/22 610/23 638/24
f 610/21 609/21 612/21 614/21 616/21 618/21 620/21 622/21 624/21 626/21 628/21 630/21 632/21 634/21 636/21 638/21
f 637/21 635/21 633/21 631/21 629/21 627/21 625/21 623/21 621/21 619/21 617/21 615/21 613/21 611/21 608/21 607/21
usemtl glass
f 639/25 640/26 641/27 642/28
f 643/25 644/26 645/27 646/28
f 639/25 643/26 646/27 640/28
f 642/25 641/26 645/27 644/28
f 640/25 646/26 645/27 641/28
f 639/25 642/26 644/27 643/28
f 647/25 648/26 649/27 650/28
f 651/25 652/26 653/27 654/28
f 647/25 651/26 654/27 648/28
f 650/25 649/26 653/27 652/28
f 648/25 654/26 653/27 649/28
f 647/25 650/26 652/27 651/28
f 655/25 656/26 657/27 658/28
f 659/25 660/26 661/27 662/28
f 655/25 659/26 662/27 656/28
f 658/25 657/26 661/27 660/28
f 656/25 662/26 661/27 657/28
f 655/25 658/26 660/27 659/28
f 663/25 664/26 665/27 666/28
f 667/25 668/26 669/27 670/28
f 663/25 667/26 670/27 664/28
f 666/25 665/26 669/27 668/28
f 664/25 670/26 669/27 665/28
f 663/25 666/26 668/27 667/28
f 671/25 672/26 673/27 674/28
f 675/25 676/26 677/27 678/28
f 671/25 675/26 678/27 672/28
f 674/25 673/26 677/27 676/28
f 672/25 678/26 677/27 673/28
f 671/25 674/26 676/27 675/28
usemtl gold
f 679/29 680/30 681/31 682/32
f 683/29 684/30 685/31 686/32
f 679/29 683/30 686/31 680/32
f 682/29 681/30 685/31 684/32
f 680/29 686/30 685/31 681/32
f 679/29 682/30 684/31 683/32
f 680/29 687/30 688/31 681/32
f 686/29 685/30 689/31 690/32
f 680/29 686/30 690/31 687/32
f 681/29 688/30 689/31 685/32
f 687/29 690/30 689/31 688/32
f 680/29 681/30 685/31 686/32
usemtl metal
f 691/33 692/34 693/35 694/36
f 695/33 696/34 697/35 698/36
f 691/33 695/34 698/35 692/36
f 694/33 693/34 697/35 696/36
f 692/33 698/34 697/35 693/36
f 691/33 694/34 696/35 695/36
f 699/33 700/34 701/35 702/36
f 703/33 704/34 705/35 706/36
f 699/33 703/34 706/35 700/36
f 702/33 701/34 705/35 704/36
f 700/33 706/34 705/35 701/36
f 699/33 702/34 704/35 703/36
f 707/33 708/34 709/35 710/36
f 711/33 712/34 713/35 714/36
f 707/33 711/34 714/35 708/36
f 710/33 709/34 713/35 712/36
f 708/33 714/34 713/35 709/36
f 707/33 710/34 712/35 711/36
f 715/33 716/34 717/35 718/36
f 719/33 720/34 721/35 722/36
f 715/33 719/34 722/35 716/36
f 718/33 717/34 721/35 720/36
f 716/33 722/34 721/35 717/36
f 715/33 718/34 720/35 719/36
f 723/33 724/34 725/35 726/36
f 727/33 728/34 729/35 730/36
f 723/33 727/34 730/35 724/36
f 726/33 725/34 729/35 728/36
f 724/33 730/34 729/35 725/36
f 723/33 726/34 728/35 727/36
f 731/33 732/34 733/35 734/36
f 735/33 736/34 737/35 738/36
f 731/33 735/34 738/35 732/36
f 734/33 733/34 737/35 736/36
f 732/33 738/34 737/35 733/36
f 731/33 734/34 736/35 735/36
f 739/33 740/34 741/35 742/36
f 743/33 744/34 745/35 746/36
f 739/33 743/34 746/35 740/36
f 742/33 741/34 745/35 744/36
f 740/33 746/34 745/35 741/36
f 739/33 742/34 744/35 743/36
f 747/33 748/34 749/35 750/36
f 751/33 752/34 753/35 754/36
f 747/33 751/34 754/35 748/36
f 750/33 749/34 753/35 752/36
f 748/33 754/34 753/35 749/36
f 747/33 750/34 752/35 751/36
f 755/33 756/34 757/35 758/36
f 759/33 760/34 761/35 762/36
f 755/33 759/34 762/35 756/36
f 758/33 757/34 761/35 760/36
f 756/33 762/34 761/35 757/36
f 755/33 758/34 760/35 759/36
f 763/33 764/34 765/35 766/36
f 767/33 768/34 769/35 770/36
f 763/33 767/34 770/35 764/36
f 766/33 765/34 769/35 768/36
f 764/33 770/34 769/35 765/36
f 763/33 766/34 768/35 767/36
f 771/33 772/34 773/35 774/36
f 775/33 776/34 777/35 778/36
f 771/33 775/34 778/35 772/36
f 774/33 773/34 777/35 776/36
f 772/33 778/34 777/35 773/36
f 771/33 774/34 776/35 775/36
f 779/33 780/34 781/35 782/36
f 783/33 784/34 785/35 786/36
f 779/33 783/34 786/35 780/36
f 782/33 781/34 785/35 784/36
f 780/33 786/34 785/35 781/36
f 779/33 782/34 784/35 783/36
f 787/33 788/34 789/35 790/36
f 791/33 792/34 793/35 794/36
f 787/33 791/34 794/35 788/36
f 790/33 789/34 793/35 792/36
f 788/33 794/34 793/35 789/36
f 787/33 790/34 792/35 791/36
f 795/33 796/34 797/35 798/36
f 796/33 799/34 800/35 797/36
f 799/33 801/34 802/35 800/36
f 801/33 803/34 804/35 802/36
f 803/33 805/34 806/35 804/36
f 805/33 807/34 808/35 806/36
f 807/33 809/34 810/35 808/36
f 809/33 811/34 812/35 810/36
f 811/33 813/34 814/35 812/36
f 813/33 815/34 816/35 814/36
f 815/33 817/34 818/35 816/36
f 817/33 795/34 798/35 818/36
f 798/33 797/33 800/33 802/33 804/33 806/33 808/33 810/33 812/33 814/33 816/33 818/33
f 817/33 815/33 813/33 811/33 809/33 807/33 805/33 803/33 801/33 799/33 796/33 795/33
f 819/33 820/34 821/35 822/36
f 823/33 824/34 825/35 826/36
f 819/33 823/34 826/35 820/36
f 822/33 821/34 825/35 824/36
f 820/33 826/34 825/35 821/36
f 819/33 822/34 824/35 823/36
f 827/33 828/34 829/35 830/36
f 831/33 832/34 833/35 834/36
f 827/33 831/34 834/35 828/36
f 830/33 829/34 833/35 832/36
f 828/33 834/34 833/35 829/36
f 827/33 830/34 832/35 831/36
usemtl metal_hi
f 835/37 836/38 837/39 838/40
f 839/37 840/38 4/39 1/40
f 835/37 839/38 1/39 836/40
f 838/37 837/38 4/39 840/40
f 836/37 1/38 4/39 837/40
f 835/37 838/38 840/39 839/40
f 841/37 842/38 843/39 844/40
f 2/37 3/38 845/39 846/40
f 841/37 2/38 846/39 842/40
f 844/37 843/38 845/39 3/40
f 842/37 846/38 845/39 843/40
f 841/37 844/38 3/39 2/40
f 847/37 848/38 849/39 850/40
f 851/37 852/38 853/39 854/40
f 847/37 851/38 854/39 848/40
f 850/37 849/38 853/39 852/40
f 848/37 854/38 853/39 849/40
f 847/37 850/38 852/39 851/40
f 855/37 856/38 857/39 858/40
f 859/37 860/38 861/39 862/40
f 855/37 859/38 862/39 856/40
f 858/37 857/38 861/39 860/40
f 856/37 862/38 861/39 857/40
f 855/37 858/38 860/39 859/40
f 863/37 864/38 865/39 866/40
f 867/37 868/38 869/39 870/40
f 863/37 867/38 870/39 864/40
f 866/37 865/38 869/39 868/40
f 864/37 870/38 869/39 865/40
f 863/37 866/38 868/39 867/40
usemtl needle
f 871/41 872/42 873/43 874/44
f 875/41 876/42 877/43 878/44
f 871/41 874/42 876/43 875/44
f 873/41 872/42 878/43 877/44
f 874/41 873/42 877/43 876/44
f 871/41 875/42 878/43 872/44
f 879/41 880/42 881/43 882/44
f 883/41 884/42 885/43 886/44
f 879/41 882/42 884/43 883/44
f 881/41 880/42 886/43 885/44
f 882/41 881/42 885/43 884/44
f 879/41 883/42 886/43 880/44
usemtl rubber
f 887/45 888/46 889/47 890/48
f 891/45 892/46 893/47 894/48
f 887/45 891/46 894/47 888/48
f 890/45 889/46 893/47 892/48
f 888/45 894/46 893/47 889/48
f 887/45 890/46 892/47 891/48
f 895/45 896/46 897/47 898/48
f 899/45 900/46 901/47 902/48
f 895/45 899/46 902/47 896/48
f 898/45 897/46 901/47 900/48
f 896/45 902/46 901/47 897/48
f 895/45 898/46 900/47 899/48
f 903/45 904/46 905/47 906/48
f 907/45 908/46 909/47 910/48
f 903/45 907/46 910/47 904/48
f 906/45 905/46 909/47 908/48
f 904/45 910/46 909/47 905/48
f 903/45 906/46 908/47 907/48
f 911/45 912/46 913/47 914/48
f 915/45 916/46 917/47 918/48
f 911/45 915/46 918/47 912/48
f 914/45 913/46 917/47 916/48
f 912/45 918/46 917/47 913/48
f 911/45 914/46 916/47 915/48
f 919/45 920/46 921/47 922/48
f 923/45 924/46 925/47 926/48
f 919/45 923/46 926/47 920/48
f 922/45 921/46 925/47 924/48
f 920/45 926/46 925/47 921/48
f 919/45 922/46 924/47 923/48
f 927/45 928/46 929/47 930/48
f 931/45 932/46 933/47 934/48
f 927/45 931/46 934/47 928/48
f 930/45 929/46 933/47 932/48
f 928/45 934/46 933/47 929/48
f 927/45 930/46 932/47 931/48
f 935/45 936/46 937/47 938/48
f 939/45 940/46 941/47 942/48
f 935/45 939/46 942/47 936/48
f 938/45 937/46 941/47 940/48
f 936/45 942/46 941/47 937/48
f 935/45 938/46 940/47 939/48
f 943/45 944/46 945/47 946/48
f 947/45 948/46 949/47 950/48
f 943/45 947/46 950/47 944/48
f 946/45 945/46 949/47 948/48
f 944/45 950/46 949/47 945/48
f 943/45 946/46 948/47 947/48
f 951/45 952/46 953/47 954/48
f 955/45 956/46 957/47 958/48
f 951/45 955/46 958/47 952/48
f 954/45 953/46 957/47 956/48
f 952/45 958/46 957/47 953/48
f 951/45 954/46 956/47 955/48
f 959/45 960/46 961/47 962/48
f 963/45 964/46 965/47 966/48
f 959/45 963/46 966/47 960/48
f 962/45 961/46 965/47 964/48
f 960/45 966/46 965/47 961/48
f 959/45 962/46 964/47 963/48
f 967/45 968/46 969/47 970/48
f 971/45 972/46 973/47 974/48
f 967/45 971/46 974/47 968/48
f 970/45 969/46 973/47 972/48
f 968/45 974/46 973/47 969/48
f 967/45 970/46 972/47 971/48
f 975/45 976/46 977/47 978/48
f 979/45 980/46 981/47 982/48
f 975/45 979/46 982/47 976/48
f 978/45 977/46 981/47 980/48
f 976/45 982/46 981/47 977/48
f 975/45 978/46 980/47 979/48
f 983/45 984/46 985/47 986/48
f 987/45 988/46 989/47 990/48
f 983/45 987/46 990/47 984/48
f 986/45 985/46 989/47 988/48
f 984/45 990/46 989/47 985/48
f 983/45 986/46 988/47 987/48
f 991/45 992/46 993/47 994/48
f 995/45 996/46 997/47 998/48
f 991/45 995/46 998/47 992/48
f 994/45 993/46 997/47 996/48
f 992/45 998/46 997/47 993/48
f 991/45 994/46 996/47 995/48
f 999/45 1000/46 1001/47 1002/48
f 1003/45 1004/46 1005/47 1006/48
f 999/45 1003/46 1006/47 1000/48
f 1002/45 1001/46 1005/47 1004/48
f 1000/45 1006/46 1005/47 1001/48
f 999/45 1002/46 1004/47 1003/48
f 1007/45 1008/46 1009/47 1010/48
f 1011/45 1012/46 1013/47 1014/48
f 1007/45 1011/46 1014/47 1008/48
f 1010/45 1009/46 1013/47 1012/48
f 1008/45 1014/46 1013/47 1009/48
f 1007/45 1010/46 1012/47 1011/48
f 1015/45 1016/46 1017/47 1018/48
f 1019/45 1020/46 1021/47 1022/48
f 1015/45 1019/46 1022/47 1016/48
f 1018/45 1017/46 1021/47 1020/48
f 1016/45 1022/46 1021/47 1017/48
f 1015/45 1018/46 1020/47 1019/48
f 1023/45 1024/46 1025/47 1026/48
f 1027/45 1028/46 1029/47 1030/48
f 1023/45 1027/46 1030/47 1024/48
f 1026/45 1025/46 1029/47 1028/48
f 1024/45 1030/46 1029/47 1025/48
f 1023/45 1026/46 1028/47 1027/48
usemtl wood
f 1031/49 1032/50 1033/51 1034/52
f 1035/49 1036/50 1037/51 1038/52
f 1031/49 1035/50 1038/51 1032/52
f 1034/49 1033/50 1037/51 1036/52
f 1032/49 1038/50 1037/51 1033/52
f 1031/49 1034/50 1036/51 1035/52
f 1039/49 1040/50 1041/51 1042/52
f 1043/49 1044/50 1045/51 1046/52
f 1039/49 1043/50 1046/51 1040/52
f 1042/49 1041/50 1045/51 1044/52
f 1040/49 1046/50 1045/51 1041/52
f 1039/49 1042/50 1044/51 1043/52
usemtl wood_hi
f 1047/53 1048/54 1049/55 1050/56
f 1051/53 1052/54 1053/55 1054/56
f 1047/53 1051/54 1054/55 1048/56
f 1050/53 1049/54 1053/55 1052/56
f 1048/53 1054/54 1053/55 1049/56
f 1047/53 1050/54 1052/55 1051/56
